<?xml version="1.0" standalone="no"?>
<!DOCTYPE svg PUBLIC "-//W3C//DTD SVG 20010904//EN"
 "http://www.w3.org/TR/2001/REC-SVG-20010904/DTD/svg10.dtd">
<svg version="1.0" xmlns="http://www.w3.org/2000/svg"
 width="125.000000pt" height="125.000000pt" viewBox="0 0 125.000000 125.000000"
 preserveAspectRatio="xMidYMid meet">
<metadata>
Created by potrace 1.14, written by Peter Selinger 2001-2017
</metadata>
<g transform="translate(0.000000,125.000000) scale(0.100000,-0.100000)"
fill="#000000" stroke="none">
<path d="M0 1210 c0 -5 8 -10 19 -10 30 0 84 -26 108 -52 39 -43 43 -84 42
-528 0 -465 -2 -481 -58 -531 -16 -15 -47 -30 -70 -34 -105 -18 -17 -25 299
-24 372 1 459 10 554 55 243 115 331 511 182 819 -79 162 -207 265 -372 300
-83 17 -704 22 -704 5z m545 -25 c227 -25 397 -257 410 -560 9 -230 -89 -460
-225 -530 -85 -44 -225 -54 -288 -21 -43 22 -78 72 -89 126 -5 25 -9 256 -9
515 l1 469 25 6 c28 7 84 5 175 -5z"/>
</g>
</svg>
